<svg width="36" height="36" viewBox="0 0 36 36" fill="none" xmlns="http://www.w3.org/2000/svg">
    <path fill-rule="evenodd" clip-rule="evenodd" d="M19.4389 32.3293C24.9228 25.9774 30 20.0965 30 14C30 7.37258 24.6274 2 18 2C11.3726 2 6 7.37258 6 14C6 20.0965 11.0772 25.9774 16.5611 32.3293C17.0387 32.8825 17.5193 33.4392 18 34C18.4807 33.4392 18.9613 32.8825 19.4389 32.3293ZM18 20C21.3137 20 24 17.3137 24 14C24 10.6863 21.3137 8 18 8C14.6863 8 12 10.6863 12 14C12 17.3137 14.6863 20 18 20Z" fill="#E62632"/>
</svg>